<svg width="8" height="16" viewBox="0 0 8 16" fill="none" xmlns="http://www.w3.org/2000/svg">
<path d="M2.12695 0.856445C2.26762 0.873447 2.40289 0.923934 2.52344 1.00391C2.64258 1.08299 2.74477 1.18897 2.8252 1.31348L6.92969 7.29883L6.98047 7.37793C7.0915 7.56772 7.15037 7.7911 7.15039 8.01855C7.15039 8.27844 7.07341 8.53298 6.92969 8.73828L6.92871 8.73926L2.67969 14.7256C2.58144 14.8647 2.45449 14.9775 2.30859 15.0518C2.16579 15.1244 2.00919 15.1567 1.85156 15.1475C1.61078 15.148 1.38178 15.0498 1.20312 14.876C1.10273 14.7783 1.02036 14.6596 0.960938 14.5273C0.901575 14.3951 0.866058 14.2508 0.854492 14.1035C0.842971 13.9563 0.856025 13.8077 0.893555 13.666C0.931064 13.5244 0.991926 13.3915 1.07422 13.2754L1.0752 13.2744L4.82129 8.01172L1.20898 2.74023V2.73926C1.12819 2.62208 1.06808 2.48873 1.03223 2.34668C0.996245 2.20408 0.98469 2.05462 0.998047 1.90723C1.01142 1.75996 1.05019 1.61679 1.11133 1.48535C1.17253 1.35384 1.25551 1.23579 1.35742 1.13965C1.45879 1.03625 1.57848 0.956653 1.70996 0.907227C1.84371 0.857001 1.98615 0.839463 2.12695 0.856445Z" fill="#2B2C34" stroke="#2B2C34" stroke-width="0.3"/>
</svg>
